<?xml version="1.0" encoding="UTF-8"?>
<svg width="742.86" height="161.43" version="1.0" xmlns="http://www.w3.org/2000/svg" xmlns:cc="http://creativecommons.org/ns#" xmlns:dc="http://purl.org/dc/elements/1.1/" xmlns:rdf="http://www.w3.org/1999/02/22-rdf-syntax-ns#" xmlns:xlink="http://www.w3.org/1999/xlink">
 <metadata>
  <rdf:RDF>
   <cc:Work rdf:about="">
    <dc:format>image/svg+xml</dc:format>
    <dc:type rdf:resource="http://purl.org/dc/dcmitype/StillImage"/>
    <dc:title/>
   </cc:Work>
  </rdf:RDF>
 </metadata>
 <defs>
  <linearGradient id="Huea">
   <stop stop-color="maroon" offset="0"/>
   <stop stop-color="red" offset="1"/>
  </linearGradient>
  <linearGradient id="Huei" x1="82.357" x2="637.64" y1="245.22" y2="245.22" gradientTransform="matrix(1.2608 0 0 1.0477 -82.046 689.01)" gradientUnits="userSpaceOnUse">
   <stop stop-color="red" offset="0"/>
   <stop stop-color="yellow" offset=".18513"/>
   <stop stop-color="lime" offset=".34256"/>
   <stop stop-color="aqua" offset=".5"/>
   <stop stop-color="blue" offset=".6543"/>
   <stop stop-color="fuchsia" offset=".81199"/>
   <stop stop-color="red" offset="1"/>
  </linearGradient>
  <linearGradient id="Hueh" x1="42.678" x2="42.678" y1="1002.9" y2="1030.9" gradientTransform="translate(-1.0102)" gradientUnits="userSpaceOnUse" xlink:href="#Huea"/>
  <linearGradient id="Hueg" x1="153.18" x2="153.18" y1="1002.9" y2="1030.9" gradientTransform="translate(-1.0102)" gradientUnits="userSpaceOnUse">
   <stop stop-color="olive" offset="0"/>
   <stop stop-color="#c0c000" offset="1"/>
  </linearGradient>
  <linearGradient id="Huef" x1="263.58" x2="263.58" y1="1002.9" y2="1030.9" gradientTransform="translate(-1.0102)" gradientUnits="userSpaceOnUse">
   <stop stop-color="green" offset="0"/>
   <stop stop-color="#00c000" offset="1"/>
  </linearGradient>
  <linearGradient id="Huee" x1="373.58" x2="373.58" y1="1002.9" y2="1030.9" gradientTransform="translate(-1.0102)" gradientUnits="userSpaceOnUse">
   <stop stop-color="teal" offset="0"/>
   <stop stop-color="#00c0c0" offset="1"/>
  </linearGradient>
  <linearGradient id="Hued" x1="483.42" x2="483.42" y1="1002.9" y2="1030.9" gradientTransform="translate(-1.0102)" gradientUnits="userSpaceOnUse">
   <stop stop-color="navy" offset="0"/>
   <stop stop-color="blue" offset="1"/>
  </linearGradient>
  <linearGradient id="Huec" x1="592.9" x2="592.9" y1="1002.9" y2="1030.9" gradientTransform="translate(-1.0102)" gradientUnits="userSpaceOnUse">
   <stop stop-color="purple" offset="0"/>
   <stop stop-color="fuchsia" offset="1"/>
  </linearGradient>
  <linearGradient id="Hueb" x1="702.9" x2="702.9" y1="1002.9" y2="1030.9" gradientTransform="translate(-1.0102)" gradientUnits="userSpaceOnUse" xlink:href="#Huea"/>
 </defs>
 <g transform="translate(0 -889.51)">
  <rect x="22.422" y="911.51" width="698.85" height="68.851" fill="url(#Huei)"/>
  <path d="m51.148 1016.9c-2.1e-5 4.6134-0.82684 8.1069-2.4805 10.48-1.6537 2.3735-3.9868 3.5602-6.9995 3.5602-3.0404 0-5.3807-1.1867-7.0209-3.5602-1.6402-2.3734-2.4603-5.8669-2.4603-10.48-1e-6 -4.7193 0.84676-8.2322 2.5403-10.539 1.6935-2.3067 4.0072-3.4735 6.9409-3.5004 2.9061 1e-4 5.2126 1.1601 6.9196 3.4803 1.7069 2.3201 2.5604 5.8398 2.5604 10.559zm-9.48 9.7204c1.4665 0 2.5663-0.7332 3.2996-2.1997 0.73322-1.4665 1.0998-3.9734 1.0999-7.5207-1.5e-5 -3.5197-0.36663-6.0195-1.0999-7.4994-0.73325-1.4799-1.8331-2.2199-3.2996-2.2199-1.4942 0-2.6011 0.74-3.3209 2.2199-0.71982 1.4799-1.0797 3.9797-1.0797 7.4994-7e-6 3.5473 0.3599 6.0542 1.0797 7.5207 0.7198 1.4665 1.8268 2.1997 3.3209 2.1997z" fill="url(#Hueh)"/>
  <path d="m674.88 1017.6v-2.6795c-1e-5 -0.2669 0.04678-0.4736 0.14038-0.6201 0.09358-0.1465 0.31371-0.2197 0.6604-0.2197h1.3196c1.4136 0 2.4937-0.3068 3.2404-0.9204 0.74665-0.6136 1.12-1.5601 1.12-2.8394-0.02687-0.9334-0.33367-1.7134-0.92041-2.3401-0.58676-0.6266-1.3603-0.9399-2.3206-0.9399-0.5599 0-1.1332 0.1465-1.72 0.4394-0.58676 0.293-1.1332 0.7064-1.6394 1.2403-0.42644 0.4533-0.67302 0.6932-0.73975 0.7196-0.06674 0.0264-0.11353 0.0397-0.14038 0.0397-0.05372 0-0.0938-0.0065-0.12024-0.0196-0.02645-0.013-0.09298-0.0728-0.19958-0.1794l-2.1997-1.9605c-0.08057-0.0537-0.13408-0.1137-0.16052-0.18-0.02646-0.0663-0.03968-0.1398-0.03968-0.2204 0-0.0797 0.04659-0.213 0.13977-0.3997 0.09318-0.1868 0.2065-0.3733 0.33997-0.5597 0.69335-0.9872 1.6467-1.754 2.8601-2.3004 1.2134-0.5465 2.4866-0.8197 3.8196-0.8198 2.2933 0.0269 4.1734 0.6869 5.6403 1.98 1.4669 1.2932 2.2003 3.0197 2.2003 5.1795-2e-5 1.3867-0.32004 2.5801-0.96008 3.5803-0.64007 1.0002-1.5733 1.7668-2.7997 2.2998 1.5194 0.4533 2.679 1.2799 3.479 2.4799 0.79995 1.1999 1.1999 2.56 1.2 4.0802-2e-5 2.4804-0.81321 4.5072-2.4396 6.0803-1.6264 1.5731-3.8532 2.373-6.6803 2.3999-1.0661 0-2.2058-0.1201-3.4192-0.3601-1.2134-0.2401-2.2603-0.5599-3.1409-0.9595-0.42643-0.1603-0.71961-0.3339-0.87952-0.5206-0.15991-0.1868-0.19999-0.4002-0.12024-0.6403l0.83985-2.959c0.02685-0.1334 0.07364-0.2335 0.14038-0.3003 0.06673-0.0667 0.16683-0.1001 0.30029-0.1001 0 0.0269 0.00671 0.0403 0.02014 0.0403s0.63334 0.2531 1.8598 0.7593c0.66649 0.3206 1.3131 0.5475 1.9397 0.6805 0.62662 0.1331 1.2732 0.1862 1.9397 0.1593 1.3338 0.0269 2.4074-0.3196 3.2208-1.0394 0.81339-0.7198 1.2201-1.7999 1.2201-3.2403-2e-5 -1.3868-0.43337-2.4001-1.3-3.0402-0.86671-0.64-2.087-0.9731-3.6609-0.9991h-1.239c-0.32065 0-0.53427-0.0601-0.64087-0.1801-0.10662-0.12-0.15992-0.3269-0.15991-0.6207zm34.065-13.12-0.83985 2.8002c-0.05291 0.1335-0.11944 0.2336-0.19958 0.3003-0.08018 0.0668-0.16013 0.1002-0.23987 0.1001-0.10663 1e-4 -0.27325-0.0467-0.49988-0.1403-0.22666-0.0936-0.39328-0.1669-0.49988-0.2198-0.32065-0.0797-0.61423-0.1462-0.88073-0.1996-0.26654-0.0532-0.51983-0.0799-0.75989-0.0799-1.7066 0.0261-3.1332 0.6124-4.2798 1.759-1.1466 1.1467-1.9735 2.8268-2.4805 5.0403l0.08057 0.0806c0.58674-0.8 1.2801-1.3934 2.0801-1.7804 0.79996-0.387 1.6666-0.5805 2.6001-0.5805 2.3193 0 4.1123 0.8535 5.379 2.5605 1.2667 1.7069 1.9134 3.9471 1.9403 6.7205-2e-5 3.0933-0.76662 5.5465-2.2998 7.3597-1.5332 1.8131-3.6332 2.7197-6.3 2.7197-1.5202-0.0269-2.827-0.327-3.9203-0.9003-1.0934-0.5733-1.9997-1.4199-2.7191-2.5397-0.64047-0.9334-1.1206-2.1002-1.4404-3.5003-0.31983-1.4002-0.47974-2.9934-0.47974-4.7797 0-2.2135 0.21993-4.2602 0.65979-6.1401s1.0732-3.4998 1.9-4.8596c1.0929-1.7871 2.4461-3.1273 4.0594-4.0204 1.6134-0.8932 3.4068-1.3397 5.3802-1.3398 0.66649 1e-4 1.313 0.0733 1.9397 0.2198 0.62661 0.1465 1.1267 0.3398 1.5002 0.5798 0.1603 0.1335 0.26711 0.2468 0.32044 0.34 0.05328 0.0932 0.05308 0.2598-6.1e-4 0.4999zm-6.9995 22.12c1.04 0 1.9-0.4466 2.58-1.3397 0.67992-0.8931 1.0199-2.2732 1.0199-4.14-0.02687-1.8132-0.36033-3.1531-1.0004-4.0198-0.64007-0.8667-1.4931-1.3135-2.5592-1.3403-1.2272 0-2.134 0.4799-2.7203 1.4398-0.58635 0.9599-0.87952 2.2666-0.87952 3.9203 0 1.7602 0.29317 3.1136 0.87952 4.06 0.58634 0.9465 1.4797 1.4197 2.68 1.4197zm31.466-9.7204c-2e-5 4.6134-0.82684 8.1069-2.4805 10.48-1.6537 2.3735-3.9868 3.5602-6.9995 3.5602-3.0404 0-5.3807-1.1867-7.0209-3.5602-1.6402-2.3734-2.4603-5.8669-2.4603-10.48 0-4.7193 0.84676-8.2322 2.5403-10.539 1.6935-2.3067 4.0072-3.4735 6.9409-3.5004 2.9061 1e-4 5.2126 1.1601 6.9196 3.4803 1.7069 2.3201 2.5604 5.8398 2.5604 10.559zm-9.48 9.7204c1.4665 0 2.5663-0.7332 3.2996-2.1997 0.73322-1.4665 1.0998-3.9734 1.0998-7.5207-1e-5 -3.5197-0.36663-6.0195-1.0998-7.4994-0.73325-1.4799-1.8331-2.2199-3.2996-2.2199-1.4942 0-2.6011 0.74-3.3209 2.2199-0.71982 1.4799-1.0797 3.9797-1.0797 7.4994 0 3.5473 0.3599 6.0542 1.0797 7.5207 0.7198 1.4665 1.8268 2.1997 3.3209 2.1997z" fill="url(#Hueb)"/>
  <path d="m564.88 1017.6v-2.6795c-1e-5 -0.2669 0.04678-0.4736 0.14038-0.6201 0.09358-0.1465 0.31371-0.2197 0.6604-0.2197h1.3196c1.4136 0 2.4937-0.3068 3.2404-0.9204 0.74665-0.6136 1.12-1.5601 1.12-2.8394-0.02687-0.9334-0.33367-1.7134-0.92041-2.3401-0.58676-0.6266-1.3603-0.9399-2.3206-0.9399-0.5599 0-1.1332 0.1465-1.72 0.4394-0.58676 0.293-1.1332 0.7064-1.6394 1.2403-0.42644 0.4533-0.67302 0.6932-0.73975 0.7196-0.06674 0.0264-0.11353 0.0397-0.14038 0.0397-0.05372 0-0.0938-0.0065-0.12024-0.0196-0.02645-0.013-0.09298-0.0728-0.19958-0.1794l-2.1997-1.9605c-0.08057-0.0537-0.13408-0.1137-0.16052-0.18-0.02646-0.0663-0.03968-0.1398-0.03968-0.2204 0-0.0797 0.04659-0.213 0.13977-0.3997 0.09318-0.1868 0.2065-0.3733 0.33997-0.5597 0.69335-0.9872 1.6467-1.754 2.8601-2.3004 1.2134-0.5465 2.4866-0.8197 3.8196-0.8198 2.2933 0.0269 4.1734 0.6869 5.6403 1.98 1.4669 1.2932 2.2003 3.0197 2.2003 5.1795-2e-5 1.3867-0.32004 2.5801-0.96008 3.5803-0.64007 1.0002-1.5733 1.7668-2.7997 2.2998 1.5194 0.4533 2.679 1.2799 3.479 2.4799 0.79995 1.1999 1.1999 2.56 1.2 4.0802-2e-5 2.4804-0.81321 4.5072-2.4396 6.0803-1.6264 1.5731-3.8532 2.373-6.6803 2.3999-1.0661 0-2.2058-0.1201-3.4192-0.3601-1.2134-0.2401-2.2603-0.5599-3.1409-0.9595-0.42643-0.1603-0.71961-0.3339-0.87952-0.5206-0.15991-0.1868-0.19999-0.4002-0.12024-0.6403l0.83985-2.959c0.02685-0.1334 0.07364-0.2335 0.14038-0.3003 0.06673-0.0667 0.16683-0.1001 0.30029-0.1001 0 0.0269 0.00671 0.0403 0.02014 0.0403s0.63334 0.2531 1.8598 0.7593c0.66649 0.3206 1.3131 0.5475 1.9397 0.6805 0.62662 0.1331 1.2732 0.1862 1.9397 0.1593 1.3338 0.0269 2.4074-0.3196 3.2208-1.0394 0.81339-0.7198 1.2201-1.7999 1.2201-3.2403-2e-5 -1.3868-0.43337-2.4001-1.3-3.0402-0.86671-0.64-2.087-0.9731-3.6609-0.9991h-1.239c-0.32065 0-0.53427-0.0601-0.64087-0.1801-0.10662-0.12-0.15992-0.3269-0.15991-0.6207zm36.266-0.7202c-2e-5 4.6134-0.82684 8.1069-2.4805 10.48-1.6537 2.3735-3.9868 3.5602-6.9995 3.5602-3.0404 0-5.3807-1.1867-7.0209-3.5602-1.6402-2.3734-2.4603-5.8669-2.4603-10.48 0-4.7193 0.84676-8.2322 2.5403-10.539 1.6935-2.3067 4.0072-3.4735 6.9409-3.5004 2.9061 1e-4 5.2126 1.1601 6.9196 3.4803 1.7069 2.3201 2.5604 5.8398 2.5604 10.559zm-9.48 9.7204c1.4665 0 2.5663-0.7332 3.2996-2.1997 0.73322-1.4665 1.0998-3.9734 1.0999-7.5207-2e-5 -3.5197-0.36664-6.0195-1.0999-7.4994-0.73324-1.4799-1.8331-2.2199-3.2996-2.2199-1.4942 0-2.6011 0.74-3.3209 2.2199-0.71981 1.4799-1.0797 3.9797-1.0797 7.4994-1e-5 3.5473 0.3599 6.0542 1.0797 7.5207 0.7198 1.4665 1.8268 2.1997 3.3209 2.1997zm31.746-9.7204c-2e-5 4.6134-0.82684 8.1069-2.4805 10.48-1.6537 2.3735-3.9868 3.5602-6.9995 3.5602-3.0404 0-5.3807-1.1867-7.0209-3.5602-1.6402-2.3734-2.4603-5.8669-2.4603-10.48 0-4.7193 0.84676-8.2322 2.5403-10.539 1.6935-2.3067 4.0072-3.4735 6.9409-3.5004 2.9061 1e-4 5.2126 1.1601 6.9196 3.4803 1.7069 2.3201 2.5604 5.8398 2.5604 10.559zm-9.48 9.7204c1.4665 0 2.5663-0.7332 3.2996-2.1997 0.73322-1.4665 1.0998-3.9734 1.0998-7.5207-1e-5 -3.5197-0.36663-6.0195-1.0998-7.4994-0.73325-1.4799-1.8331-2.2199-3.2996-2.2199-1.4942 0-2.6011 0.74-3.3209 2.2199-0.71982 1.4799-1.0797 3.9797-1.0797 7.4994 0 3.5473 0.3599 6.0542 1.0797 7.5207 0.7198 1.4665 1.8268 2.1997 3.3209 2.1997z" fill="url(#Huec)"/>
  <path d="m467.32 1026.5v2.9199c-2e-5 0.293-0.06675 0.5062-0.20019 0.6397-0.13349 0.1334-0.33368 0.2002-0.60059 0.2002h-14.44c-0.18636 0-0.31962-0.0466-0.39978-0.1398s-0.12024-0.2733-0.12024-0.5402c0-1.333 0.07324-2.4863 0.21973-3.4601 0.14648-0.9737 0.36661-1.8202 0.6604-2.5396 0.34667-0.9066 0.88663-1.78 1.6199-2.6203 0.73323-0.8402 1.9397-1.9134 3.6194-3.2196 2.0801-1.6268 3.4401-2.9268 4.0802-3.9001 0.64004-0.9733 0.97349-2.0866 1.0004-3.3399-1e-5 -1.0668-0.31332-1.8802-0.93994-2.4402-0.62664-0.5598-1.4067-0.8532-2.3401-0.8801-0.87973 0-1.6062 0.2267-2.1796 0.6799-0.57333 0.4534-1.1135 1.2265-1.6205 2.3194-0.29298 0.6136-0.48626 0.9538-0.57984 1.0205-0.09359 0.0667-0.18026 0.1001-0.26001 0.1001h-0.12024c-0.02645 0-0.13286-0.0399-0.31921-0.1196l-2.561-0.9607c-0.1595-0.0529-0.27262-0.1262-0.33935-0.2198-0.06674-0.0935-0.1001-0.2201-0.1001-0.3796 0-0.3206 0.08667-0.7275 0.26001-1.2207 0.17334-0.4931 0.39347-0.9529 0.6604-1.3794 0.74625-1.2532 1.7662-2.2599 3.0597-3.02 1.2935-0.7601 2.82-1.1401 4.5795-1.1402 2.3738 1e-4 4.234 0.6601 5.5804 1.98 1.3464 1.32 2.0196 3.1535 2.0196 5.5005-2e-5 1.8661-0.38658 3.4792-1.1597 4.8395-0.77313 1.3603-2.3466 2.947-4.7205 4.7601l-1.72 1.3196c-1.0132 0.8-1.7397 1.5466-2.1796 2.24-0.43987 0.6934-0.6598 1.4136-0.65979 2.1606h9.3994c0.24005 0 0.42682 0.0466 0.5603 0.1398 0.13345 0.0932 0.21361 0.3266 0.24048 0.7001zm20.905-1.5198v5.1599c-2e-5 0.2661-0.04661 0.4659-0.13977 0.5994-0.0932 0.1335-0.31313 0.2002-0.65979 0.2002h-3.4802c-0.29299 0-0.5062-0.0466-0.63965-0.1398-0.13348-0.0932-0.18678-0.2732-0.15991-0.5401v-5.2796h-9.7595c-0.32064 0.0261-0.54097-0.0075-0.66101-0.1007-0.12003-0.0932-0.18005-0.3265-0.18005-0.7001v-4.1992l9.9609-16.6c0.15949-0.2669 0.2659-0.4136 0.31921-0.4401 0.05329-0.0264 0.12023-0.0531 0.20081-0.08 0.02603 1e-4 0.05247 1e-4 0.07934 0 0.02685 1e-4 0.0537 1e-4 0.08057 0-1e-5 0.0269 0.0065 0.0404 0.01953 0.0403 0.01301 1e-4 0.11311 0.0265 0.30029 0.0794l1.3196 0.5603 1.1597 0.4797c0.24006 0.1335 0.39346 0.2403 0.46021 0.3205 0.06671 0.0801 0.10008 0.1601 0.10009 0.2398-1e-5 0.0798-0.01995 0.1598-0.05981 0.2399-0.03989 0.0802-0.07326 0.1601-0.1001 0.2399l-9.3604 15.92h6.1206l0.63964-6.4405c0.02685-0.3466 0.10701-0.5666 0.24048-0.6598 0.13345-0.0931 0.33324-0.1397 0.59937-0.1397h2.8003c0.29377 0.0268 0.49396 0.1001 0.60059 0.2197 0.10659 0.1196 0.17291 0.3264 0.19897 0.6201v6.4002h2.24c0.42723 0 0.67422 0.0799 0.74097 0.2398 0.06671 0.16 0.10008 0.3998 0.1001 0.7196v2.24c-0.02688 0.3736-0.10033 0.6004-0.22034 0.6806-0.12006 0.0801-0.32697 0.1202-0.62073 0.1202h-2.24zm25.187-8.081c-2e-5 4.6134-0.82684 8.1069-2.4805 10.48-1.6537 2.3735-3.9868 3.5602-6.9995 3.5602-3.0404 0-5.3807-1.1867-7.0209-3.5602-1.6402-2.3734-2.4603-5.8669-2.4603-10.48 0-4.7193 0.84676-8.2322 2.5403-10.539 1.6935-2.3067 4.0072-3.4735 6.9409-3.5004 2.9061 1e-4 5.2126 1.1601 6.9196 3.4803 1.7069 2.3201 2.5604 5.8398 2.5604 10.559zm-9.48 9.7204c1.4665 0 2.5663-0.7332 3.2996-2.1997 0.73322-1.4665 1.0998-3.9734 1.0998-7.5207-1e-5 -3.5197-0.36663-6.0195-1.0998-7.4994-0.73325-1.4799-1.8331-2.2199-3.2996-2.2199-1.4942 0-2.6011 0.74-3.3209 2.2199-0.71982 1.4799-1.0797 3.9797-1.0797 7.4994 0 3.5473 0.3599 6.0542 1.0797 7.5207 0.7198 1.4665 1.8268 2.1997 3.3209 2.1997z" fill="url(#Hued)"/>
  <path d="m357.08 1027.1v2.6c-0.02687 0.267-0.08018 0.4271-0.15991 0.4804-0.07977 0.0533-0.21323 0.08-0.40039 0.08h-12.28c-0.23927 0-0.39898-0.0401-0.47913-0.1203-0.08016-0.0801-0.10682-0.2268-0.07996-0.4401v-2.6c0-0.2133 0.03987-0.3597 0.11963-0.4395 0.07975-0.0798 0.22623-0.1196 0.43946-0.1196h4.0405v-16.96l-4.3201 2.6795c-0.16033 0.1066-0.26714 0.1666-0.32044 0.18-0.05331 0.0135-0.10641 0.0202-0.1593 0.0202-0.10661 0-0.19328-0.02-0.26001-0.0599-0.06674-0.0398-0.16684-0.1932-0.30029-0.4602l-1.04-1.7993c-0.07976-0.0805-0.12635-0.1607-0.13977-0.2405-0.01343-0.0797-0.02015-0.1729-0.02015-0.2795 0-0.0805 0.02665-0.1674 0.07996-0.2606 0.0533-0.0932 0.18656-0.2199 0.39978-0.3803l7.5598-5.4394h2.8003c0.26691 0 0.46711 0.0466 0.60058 0.1398 0.13345 0.0932 0.20018 0.2866 0.2002 0.5804v22.28h3.1592c0.18716 0.026 0.32062 0.0657 0.40039 0.119 0.07973 0.0533 0.13304 0.2 0.15991 0.4401zm18.385-11c1.7871 0.6934 3.1606 1.6667 4.1205 2.9199 0.95985 1.2533 1.4398 2.64 1.4398 4.1602-2e-5 2.1598-0.84657 3.9931-2.5397 5.4999-1.6931 1.5067-3.9797 2.2601-6.8597 2.2601-2.9338 0-5.2273-0.7133-6.8805-2.1399-1.6532-1.4266-2.4799-3.2601-2.4799-5.5005 0-1.1466 0.25329-2.2066 0.75989-3.1799 0.50659-0.9733 1.24-1.7932 2.2003-2.4597 0.31982-0.2401 0.73974-0.4934 1.2598-0.7599 0.52001-0.2665 1.0067-0.4934 1.46-0.6806-0.42644-0.1595-0.83965-0.366-1.2396-0.6195-0.39999-0.2535-0.7599-0.5133-1.0797-0.7794-0.82682-0.6404-1.427-1.3674-1.8005-2.1808-0.37354-0.8134-0.56031-1.6733-0.56031-2.5799 0-2.0801 0.80668-3.7934 2.42-5.1398 1.6134-1.3464 3.607-2.0331 5.9808-2.06 2.5065 0.0269 4.5196 0.7402 6.0394 2.1399 1.5198 1.3998 2.2796 3.0067 2.2797 4.8206-0.02688 0.9863-0.2403 1.8929-0.64026 2.7197-0.40001 0.8269-0.9597 1.5332-1.6791 2.1192-0.2938 0.2669-0.64068 0.5271-1.0406 0.7806-0.4 0.2535-0.78676 0.4734-1.1603 0.6598zm-3.6389-1.7993c1.1198-0.4801 1.913-1.027 2.3798-1.6406 0.4667-0.6136 0.70006-1.3737 0.70007-2.2803-0.02687-0.9334-0.34039-1.72-0.94055-2.3596-0.60019-0.6397-1.38-0.9595-2.3395-0.9595-0.93344 0.0261-1.7135 0.3459-2.3401 0.9595-0.62663 0.6136-0.93995 1.3871-0.93994 2.3205-1e-5 0.826 0.32002 1.5992 0.96008 2.3194 0.64005 0.7202 1.4801 1.2671 2.5202 1.6406zm-0.44068 3.8c-1.2533 0.5331-2.2398 1.2397-2.9596 2.1198-0.71982 0.8801-1.0797 1.8133-1.0797 2.7997-0.02687 1.0929 0.33975 1.986 1.0998 2.6794 0.76008 0.6934 1.8201 1.04 3.1799 1.04 1.333 0 2.3863-0.3599 3.1598-1.0797 0.7735-0.7198 1.1603-1.5863 1.1603-2.5995-2e-5 -1.0131-0.43337-1.9598-1.3-2.8399-0.86671-0.8801-1.9535-1.5867-3.2605-2.1198zm32.026-1.2011c-2e-5 4.6134-0.82684 8.1069-2.4805 10.48-1.6537 2.3735-3.9868 3.5602-6.9995 3.5602-3.0404 0-5.3807-1.1867-7.0209-3.5602-1.6402-2.3734-2.4603-5.8669-2.4603-10.48 0-4.7193 0.84676-8.2322 2.5403-10.539 1.6935-2.3067 4.0072-3.4735 6.9409-3.5004 2.9061 1e-4 5.2126 1.1601 6.9196 3.4803 1.7069 2.3201 2.5604 5.8398 2.5604 10.559zm-9.48 9.7204c1.4665 0 2.5663-0.7332 3.2996-2.1997 0.73322-1.4665 1.0998-3.9734 1.0998-7.5207-1e-5 -3.5197-0.36663-6.0195-1.0998-7.4994-0.73325-1.4799-1.8331-2.2199-3.2996-2.2199-1.4942 0-2.6011 0.74-3.3209 2.2199-0.71982 1.4799-1.0797 3.9797-1.0797 7.4994 0 3.5473 0.3599 6.0542 1.0797 7.5207 0.7198 1.4665 1.8268 2.1997 3.3209 2.1997z" fill="url(#Huee)"/>
  <path d="m247.08 1027.1v2.6c-0.02687 0.267-0.08018 0.4271-0.15991 0.4804-0.07977 0.0533-0.21323 0.08-0.40039 0.08h-12.28c-0.23927 0-0.39898-0.0401-0.47913-0.1203-0.08016-0.0801-0.10682-0.2268-0.07996-0.4401v-2.6c0-0.2133 0.03987-0.3597 0.11963-0.4395 0.07975-0.0798 0.22623-0.1196 0.43946-0.1196h4.0405v-16.96l-4.3201 2.6795c-0.16033 0.1066-0.26714 0.1666-0.32044 0.18-0.05331 0.0135-0.10641 0.0202-0.1593 0.0202-0.10661 0-0.19328-0.02-0.26001-0.0599-0.06674-0.0398-0.16684-0.1932-0.30029-0.4602l-1.04-1.7993c-0.07976-0.0805-0.12635-0.1607-0.13977-0.2405-0.01343-0.0797-0.02015-0.1729-0.02015-0.2795 0-0.0805 0.02665-0.1674 0.07996-0.2606 0.0533-0.0932 0.18656-0.2199 0.39978-0.3803l7.5598-5.4394h2.8003c0.26691 0 0.46711 0.0466 0.60058 0.1398 0.13345 0.0932 0.20018 0.2866 0.2002 0.5804v22.28h3.1592c0.18716 0.026 0.32062 0.0657 0.40039 0.119 0.07973 0.0533 0.13304 0.2 0.15991 0.4401zm22.506-0.5994v2.9199c-2e-5 0.293-0.06675 0.5062-0.2002 0.6397-0.13348 0.1334-0.33368 0.2002-0.60059 0.2002h-14.44c-0.18637 0-0.31963-0.0466-0.39978-0.1398-0.08017-0.0932-0.12025-0.2733-0.12024-0.5402-1e-5 -1.333 0.07324-2.4863 0.21972-3.4601 0.14649-0.9737 0.36662-1.8202 0.6604-2.5396 0.34668-0.9066 0.88664-1.78 1.6199-2.6203 0.73323-0.8402 1.9397-1.9134 3.6194-3.2196 2.0801-1.6268 3.4401-2.9268 4.0802-3.9001 0.64004-0.9733 0.9735-2.0866 1.0004-3.3399-2e-5 -1.0668-0.31333-1.8802-0.93994-2.4402-0.62664-0.5598-1.4067-0.8532-2.3401-0.8801-0.87973 0-1.6062 0.2267-2.1796 0.6799-0.57333 0.4534-1.1135 1.2265-1.6205 2.3194-0.29298 0.6136-0.48625 0.9538-0.57983 1.0205-0.0936 0.0667-0.18027 0.1001-0.26001 0.1001h-0.12024c-0.02646 0-0.13286-0.0399-0.31922-0.1196l-2.561-0.9607c-0.15951-0.0529-0.27263-0.1262-0.33936-0.2198-0.06673-0.0935-0.1001-0.2201-0.10009-0.3796-1e-5 -0.3206 0.08666-0.7275 0.26001-1.2207 0.17333-0.4931 0.39346-0.9529 0.6604-1.3794 0.74625-1.2532 1.7661-2.2599 3.0597-3.02 1.2935-0.7601 2.82-1.1401 4.5795-1.1402 2.3738 1e-4 4.234 0.6601 5.5804 1.98 1.3464 1.32 2.0196 3.1535 2.0196 5.5005-2e-5 1.8661-0.38657 3.4792-1.1597 4.8395-0.77313 1.3603-2.3466 2.947-4.7205 4.7601l-1.72 1.3196c-1.0132 0.8-1.7397 1.5466-2.1796 2.24-0.43987 0.6934-0.6598 1.4136-0.65979 2.1606h9.3994c0.24006 0 0.42683 0.0466 0.56031 0.1398 0.13344 0.0932 0.2136 0.3266 0.24048 0.7001zm23.826-9.6008c-2e-5 4.6134-0.82684 8.1069-2.4805 10.48-1.6537 2.3735-3.9868 3.5602-6.9995 3.5602-3.0404 0-5.3807-1.1867-7.0209-3.5602-1.6402-2.3734-2.4603-5.8669-2.4603-10.48 0-4.7193 0.84676-8.2322 2.5403-10.539 1.6935-2.3067 4.0072-3.4735 6.9409-3.5004 2.9061 1e-4 5.2126 1.1601 6.9196 3.4803 1.7069 2.3201 2.5604 5.8398 2.5604 10.559zm-9.48 9.7204c1.4665 0 2.5663-0.7332 3.2996-2.1997 0.73322-1.4665 1.0998-3.9734 1.0998-7.5207-1e-5 -3.5197-0.36663-6.0195-1.0998-7.4994-0.73325-1.4799-1.8331-2.2199-3.2996-2.2199-1.4942 0-2.6011 0.74-3.3209 2.2199-0.71982 1.4799-1.0797 3.9797-1.0797 7.4994 0 3.5473 0.3599 6.0542 1.0797 7.5207 0.7198 1.4665 1.8268 2.1997 3.3209 2.1997z" fill="url(#Huef)"/>
  <path d="m147.81 1004.5-0.83984 2.8002c-0.05291 0.1335-0.11944 0.2336-0.19958 0.3003-0.08018 0.0668-0.16014 0.1002-0.23987 0.1001-0.10663 1e-4 -0.27325-0.0467-0.49988-0.1403-0.22666-0.0936-0.39329-0.1669-0.49988-0.2198-0.32065-0.0797-0.61423-0.1462-0.88074-0.1996-0.26653-0.0532-0.51983-0.0799-0.75988-0.0799-1.7066 0.0261-3.1332 0.6124-4.2798 1.759-1.1466 1.1467-1.9735 2.8268-2.4805 5.0403l0.08057 0.0806c0.58674-0.8 1.2801-1.3934 2.0801-1.7804 0.79995-0.387 1.6666-0.5805 2.6001-0.5805 2.3193 0 4.1123 0.8535 5.379 2.5605 1.2667 1.7069 1.9134 3.9471 1.9403 6.7205-2e-5 3.0933-0.76662 5.5465-2.2998 7.3597-1.5332 1.8131-3.6332 2.7197-6.3 2.7197-1.5202-0.0269-2.827-0.327-3.9203-0.9003-1.0934-0.5733-1.9997-1.4199-2.7191-2.5397-0.64046-0.9334-1.1206-2.1002-1.4404-3.5003-0.31982-1.4002-0.47974-2.9934-0.47973-4.7797-1e-5 -2.2135 0.21992-4.2602 0.65979-6.1401 0.43985-1.8799 1.0732-3.4998 1.9-4.8596 1.0929-1.7871 2.4461-3.1273 4.0594-4.0204 1.6134-0.8932 3.4068-1.3397 5.3802-1.3398 0.66649 1e-4 1.313 0.0733 1.9397 0.2198 0.62661 0.1465 1.1267 0.3398 1.5002 0.5798 0.1603 0.1335 0.26711 0.2468 0.32043 0.34 0.05329 0.0932 0.05309 0.2598-6.1e-4 0.4999zm-6.9995 22.12c1.04 0 1.9-0.4466 2.58-1.3397 0.67992-0.8931 1.0199-2.2732 1.0199-4.14-0.02687-1.8132-0.36033-3.1531-1.0004-4.0198-0.64007-0.8667-1.4931-1.3135-2.5592-1.3403-1.2272 0-2.134 0.4799-2.7203 1.4398-0.58635 0.9599-0.87953 2.2666-0.87952 3.9203-1e-5 1.7602 0.29317 3.1136 0.87952 4.06 0.58633 0.9465 1.4797 1.4197 2.68 1.4197zm31.466-9.7204c-2e-5 4.6134-0.82685 8.1069-2.4805 10.48-1.6537 2.3735-3.9868 3.5602-6.9995 3.5602-3.0404 0-5.3807-1.1867-7.0209-3.5602-1.6402-2.3734-2.4603-5.8669-2.4603-10.48-1e-5 -4.7193 0.84675-8.2322 2.5403-10.539 1.6935-2.3067 4.0072-3.4735 6.9409-3.5004 2.9061 1e-4 5.2126 1.1601 6.9196 3.4803 1.7069 2.3201 2.5604 5.8398 2.5604 10.559zm-9.48 9.7204c1.4665 0 2.5663-0.7332 3.2996-2.1997 0.73322-1.4665 1.0998-3.9734 1.0998-7.5207-2e-5 -3.5197-0.36663-6.0195-1.0998-7.4994-0.73325-1.4799-1.8331-2.2199-3.2996-2.2199-1.4942 0-2.6011 0.74-3.3209 2.2199-0.71981 1.4799-1.0797 3.9797-1.0797 7.4994-1e-5 3.5473 0.3599 6.0542 1.0797 7.5207 0.7198 1.4665 1.8268 2.1997 3.3209 2.1997z" fill="url(#Hueg)"/>
 </g>
</svg>
